<svg xmlns="http://www.w3.org/2000/svg" xmlns:xlink="http://www.w3.org/1999/xlink" contentStyleType="text/css" data-diagram-type="ACTIVITY" height="1135px" preserveAspectRatio="none" style="width:660px;height:1135px;background:#FFFFFF;" version="1.1" viewBox="0 0 660 1135" width="660px" zoomAndPan="magnify"><?plantuml $version$?><defs/><g><rect fill="#FFFFCC" height="113.0999" rx="2.5" ry="2.5" style="stroke:#FFDD88;stroke-width:3;" width="629.4715" x="13" y="13"/><text fill="#000000" font-family="monospace" font-size="10" lengthAdjust="spacing" textLength="534" x="20" y="25.62">This&#160;syntax&#160;is&#160;deprecated,&#160;you&#160;must&#160;add&#160;&lt;&lt;#4A90D9&gt;&gt;&#160;at&#160;the&#160;end&#160;of&#160;the&#160;line,&#160;after&#160;the&#160;';'</text><text fill="#000000" font-family="monospace" font-size="10" lengthAdjust="spacing" textLength="534" x="20" y="49.24">This&#160;syntax&#160;is&#160;deprecated,&#160;you&#160;must&#160;add&#160;&lt;&lt;#9B59B6&gt;&gt;&#160;at&#160;the&#160;end&#160;of&#160;the&#160;line,&#160;after&#160;the&#160;';'</text><text fill="#000000" font-family="monospace" font-size="10" lengthAdjust="spacing" textLength="534" x="20" y="72.86">This&#160;syntax&#160;is&#160;deprecated,&#160;you&#160;must&#160;add&#160;&lt;&lt;#E8E8E8&gt;&gt;&#160;at&#160;the&#160;end&#160;of&#160;the&#160;line,&#160;after&#160;the&#160;';'</text><text fill="#000000" font-family="monospace" font-size="10" lengthAdjust="spacing" textLength="534" x="20" y="96.4799">This&#160;syntax&#160;is&#160;deprecated,&#160;you&#160;must&#160;add&#160;&lt;&lt;#27AE60&gt;&gt;&#160;at&#160;the&#160;end&#160;of&#160;the&#160;line,&#160;after&#160;the&#160;';'</text><text fill="#000000" font-family="monospace" font-size="10" lengthAdjust="spacing" textLength="534" x="20" y="120.0999">This&#160;syntax&#160;is&#160;deprecated,&#160;you&#160;must&#160;add&#160;&lt;&lt;#2AA198&gt;&gt;&#160;at&#160;the&#160;end&#160;of&#160;the&#160;line,&#160;after&#160;the&#160;';'</text><ellipse cx="328.2358" cy="143.0999" fill="#222222" rx="10" ry="10" style="stroke:#222222;stroke-width:1;"/><rect fill="#FFFFFF" height="52.6882" rx="12.5" ry="12.5" style="stroke:#333333;stroke-width:0.5;" width="181.2331" x="237.6192" y="173.0999"/><text fill="#000000" font-family="sans-serif" font-size="12" lengthAdjust="spacing" textLength="161.2331" x="247.6192" y="195.928">languages map (Editor prop)</text><text fill="#000000" font-family="sans-serif" font-size="12" lengthAdjust="spacing" textLength="129.2409" x="247.6192" y="212.2721">key -&gt; LanguageConfig</text><rect fill="#FFFFFF" height="52.6882" rx="12.5" ry="12.5" style="stroke:#333333;stroke-width:0.5;" width="134.3728" x="261.0494" y="245.7882"/><text fill="#000000" font-family="sans-serif" font-size="12" lengthAdjust="spacing" textLength="114.3728" x="271.0494" y="268.6163">activate a document</text><text fill="#000000" font-family="sans-serif" font-size="12" lengthAdjust="spacing" textLength="76.8365" x="271.0494" y="284.9604">of language L</text><rect fill="none" height="271.7033" style="stroke:#000000;stroke-width:1.5;" width="624.4715" x="16" y="308.4764"/><path d="M144.7616,308.4764 L144.7616,320.5443 L134.7616,330.5443 L16,330.5443" fill="none" style="stroke:#000000;stroke-width:1.5;"/><text fill="#000000" font-family="sans-serif" font-size="14" lengthAdjust="spacing" textLength="118.7616" x="19" y="324.4423">Grammar / parser</text><polygon fill="#FFF3CD" points="62.3534,350.5443,159.6477,350.5443,171.6477,362.5443,159.6477,374.5443,62.3534,374.5443,50.3534,362.5443,62.3534,350.5443" style="stroke:#333333;stroke-width:0.5;stroke-linejoin:miter;stroke-miterlimit:10;"/><text fill="#000000" font-family="sans-serif" font-size="11" lengthAdjust="spacing" textLength="17.0829" x="115.0005" y="386.3032">yes</text><text fill="#000000" font-family="sans-serif" font-size="11" lengthAdjust="spacing" textLength="97.2943" x="62.3534" y="366.8123">config has :parser?</text><rect fill="#FFFFFF" height="52.6882" rx="12.5" ry="12.5" style="stroke:#333333;stroke-width:0.5;" width="170.0011" x="26" y="407.8032"/><text fill="#000000" font-family="sans-serif" font-size="12" lengthAdjust="spacing" textLength="104.3288" x="36" y="430.6313">use custom Parser</text><text fill="#000000" font-family="sans-serif" font-size="12" lengthAdjust="spacing" textLength="150.0011" x="36" y="446.9754">(bypasses grammarWasm)</text><polygon fill="#FFF3CD" points="250.2882,350.5443,396.7632,350.5443,408.7632,362.5443,396.7632,374.5443,250.2882,374.5443,238.2882,362.5443,250.2882,350.5443" style="stroke:#333333;stroke-width:0.5;stroke-linejoin:miter;stroke-miterlimit:10;"/><text fill="#000000" font-family="sans-serif" font-size="11" lengthAdjust="spacing" textLength="17.0829" x="327.5257" y="386.3032">yes</text><text fill="#000000" font-family="sans-serif" font-size="11" lengthAdjust="spacing" textLength="146.475" x="250.2882" y="366.8123">config has :grammar-wasm?</text><text fill="#000000" font-family="sans-serif" font-size="11" lengthAdjust="spacing" textLength="37.3557" x="408.7632" y="359.3213">neither</text><rect fill="#FFFFFF" height="52.6882" rx="12.5" ry="12.5" style="stroke:#333333;stroke-width:0.5;" width="215.0493" x="216.0011" y="407.8032"/><text fill="#000000" font-family="sans-serif" font-size="12" lengthAdjust="spacing" textLength="131.8689" x="226.0011" y="430.6313">resolve grammarWasm</text><text fill="#000000" font-family="sans-serif" font-size="12" lengthAdjust="spacing" textLength="195.0493" x="226.0011" y="446.9754">(string OR thunk -&gt; path/data-URL)</text><rect fill="#FFFFFF" height="52.6882" rx="12.5" ry="12.5" style="stroke:#333333;stroke-width:0.5;" width="202.4253" x="222.3131" y="495.4915"/><text fill="#000000" font-family="sans-serif" font-size="12" lengthAdjust="spacing" textLength="182.4253" x="232.3131" y="518.3195">load Tree-Sitter grammar WASM</text><text fill="#000000" font-family="sans-serif" font-size="12" lengthAdjust="spacing" textLength="164.0531" x="232.3131" y="534.6637">into the syntax compartment</text><rect fill="#FFFFFF" height="69.0323" rx="12.5" ry="12.5" style="stroke:#333333;stroke-width:0.5;" width="179.4211" x="451.0504" y="438.9843"/><text fill="#000000" font-family="sans-serif" font-size="12" lengthAdjust="spacing" textLength="84.8406" x="461.0504" y="461.8124">no grammar -&gt;</text><text fill="#000000" font-family="sans-serif" font-size="12" lengthAdjust="spacing" textLength="95.9527" x="461.0504" y="478.1565">plain-text editing</text><text fill="#000000" font-family="sans-serif" font-size="12" lengthAdjust="spacing" textLength="159.4211" x="461.0504" y="494.5007">(the default "text" language)</text><rect fill="none" height="176.4444" style="stroke:#000000;stroke-width:1.5;" width="251.4415" x="202.515" y="590.1797"/><path d="M309.1006,590.1797 L309.1006,602.2476 L299.1006,612.2476 L202.515,612.2476" fill="none" style="stroke:#000000;stroke-width:1.5;"/><text fill="#000000" font-family="sans-serif" font-size="14" lengthAdjust="spacing" textLength="96.5856" x="205.515" y="606.1456">Syntax queries</text><rect fill="#FFFFFF" height="52.6882" rx="12.5" ry="12.5" style="stroke:#333333;stroke-width:0.5;" width="231.4415" x="212.515" y="629.2476"/><text fill="#000000" font-family="sans-serif" font-size="12" lengthAdjust="spacing" textLength="142.405" x="222.515" y="652.0757">resolve highlightsQuery /</text><text fill="#000000" font-family="sans-serif" font-size="12" lengthAdjust="spacing" textLength="211.4415" x="222.515" y="668.4198">highlightsQueryPath (string or thunk)</text><rect fill="#FFFFFF" height="52.6882" rx="12.5" ry="12.5" style="stroke:#333333;stroke-width:0.5;" width="217.2214" x="219.6251" y="701.9358"/><text fill="#000000" font-family="sans-serif" font-size="12" lengthAdjust="spacing" textLength="128.1849" x="229.6251" y="724.7639">resolve indentsQuery /</text><text fill="#000000" font-family="sans-serif" font-size="12" lengthAdjust="spacing" textLength="197.2214" x="229.6251" y="741.108">indentsQueryPath (string or thunk)</text><rect fill="none" height="240.4444" style="stroke:#000000;stroke-width:1.5;" width="411.2582" x="119.0906" y="776.6241"/><path d="M305.7419,776.6241 L305.7419,788.692 L295.7419,798.692 L119.0906,798.692" fill="none" style="stroke:#000000;stroke-width:1.5;"/><text fill="#000000" font-family="sans-serif" font-size="14" lengthAdjust="spacing" textLength="176.6513" x="122.0906" y="792.59">Language server (optional)</text><polygon fill="#FFF3CD" points="280.0396,815.692,376.4319,815.692,388.4319,827.692,376.4319,839.692,280.0396,839.692,268.0396,827.692,280.0396,815.692" style="stroke:#333333;stroke-width:0.5;stroke-linejoin:miter;stroke-miterlimit:10;"/><text fill="#000000" font-family="sans-serif" font-size="11" lengthAdjust="spacing" textLength="96.3923" x="280.0396" y="831.9599">config has :lsp-url?</text><text fill="#000000" font-family="sans-serif" font-size="11" lengthAdjust="spacing" textLength="17.0829" x="250.9567" y="824.469">yes</text><text fill="#000000" font-family="sans-serif" font-size="11" lengthAdjust="spacing" textLength="13.4529" x="388.4319" y="824.469">no</text><rect fill="#FFFFFF" height="52.6882" rx="12.5" ry="12.5" style="stroke:#333333;stroke-width:0.5;" width="182.6612" x="139.0906" y="849.692"/><text fill="#000000" font-family="sans-serif" font-size="12" lengthAdjust="spacing" textLength="134.821" x="149.0906" y="872.5201">connect one WebSocket</text><text fill="#000000" font-family="sans-serif" font-size="12" lengthAdjust="spacing" textLength="162.6612" x="149.0906" y="888.8642">per language per Workspace</text><rect fill="#FFFFFF" height="52.6882" rx="12.5" ry="12.5" style="stroke:#333333;stroke-width:0.5;" width="143.6249" x="158.6087" y="922.3802"/><text fill="#000000" font-family="sans-serif" font-size="12" lengthAdjust="spacing" textLength="123.6249" x="168.6087" y="945.2083">diagnostics + symbols</text><text fill="#000000" font-family="sans-serif" font-size="12" lengthAdjust="spacing" textLength="43.2363" x="168.6087" y="961.5524">light up</text><rect fill="#FFFFFF" height="52.6882" rx="12.5" ry="12.5" style="stroke:#333333;stroke-width:0.5;" width="168.5971" x="341.7518" y="849.692"/><text fill="#000000" font-family="sans-serif" font-size="12" lengthAdjust="spacing" textLength="148.5971" x="351.7518" y="872.5201">editor degrades gracefully</text><text fill="#000000" font-family="sans-serif" font-size="12" lengthAdjust="spacing" textLength="139.981" x="351.7518" y="888.8642">(no diagnostics/symbols)</text><polygon fill="#FFF3CD" points="328.2358,981.0684,340.2358,993.0684,328.2358,1005.0684,316.2358,993.0684,328.2358,981.0684" style="stroke:#333333;stroke-width:0.5;stroke-linejoin:miter;stroke-miterlimit:10;"/><rect fill="#FFFFFF" height="36.3441" rx="12.5" ry="12.5" style="stroke:#333333;stroke-width:0.5;" width="173.7811" x="241.3452" y="1037.0684"/><text fill="#000000" font-family="sans-serif" font-size="12" lengthAdjust="spacing" textLength="153.7811" x="251.3452" y="1059.8965">editor ready for language L</text><ellipse cx="328.2358" cy="1104.4125" fill="none" rx="11" ry="11" style="stroke:#222222;stroke-width:1;"/><ellipse cx="328.2358" cy="1104.4125" fill="#222222" rx="6" ry="6" style="stroke:#222222;stroke-width:1;"/><line style="stroke:#333333;stroke-width:1;" x1="328.2358" x2="328.2358" y1="153.0999" y2="173.0999"/><polygon fill="#333333" points="324.2358,163.0999,328.2358,173.0999,332.2358,163.0999,328.2358,167.0999" style="stroke:#333333;stroke-width:1;stroke-linejoin:miter;stroke-miterlimit:10;"/><line style="stroke:#333333;stroke-width:1;" x1="328.2358" x2="328.2358" y1="225.7882" y2="245.7882"/><polygon fill="#333333" points="324.2358,235.7882,328.2358,245.7882,332.2358,235.7882,328.2358,239.7882" style="stroke:#333333;stroke-width:1;stroke-linejoin:miter;stroke-miterlimit:10;"/><line style="stroke:#333333;stroke-width:1;" x1="323.5257" x2="323.5257" y1="460.4915" y2="495.4915"/><polygon fill="#333333" points="319.5257,485.4915,323.5257,495.4915,327.5257,485.4915,323.5257,489.4915" style="stroke:#333333;stroke-width:1;stroke-linejoin:miter;stroke-miterlimit:10;"/><line style="stroke:#333333;stroke-width:1;" x1="111.0005" x2="111.0005" y1="374.5443" y2="407.8032"/><polygon fill="#333333" points="107.0005,397.8032,111.0005,407.8032,115.0005,397.8032,111.0005,401.8032" style="stroke:#333333;stroke-width:1;stroke-linejoin:miter;stroke-miterlimit:10;"/><line style="stroke:#333333;stroke-width:1;" x1="111.0005" x2="111.0005" y1="460.4915" y2="568.1797"/><polygon fill="#333333" points="107.0005,558.1797,111.0005,568.1797,115.0005,558.1797,111.0005,562.1797" style="stroke:#333333;stroke-width:1;stroke-linejoin:miter;stroke-miterlimit:10;"/><line style="stroke:#333333;stroke-width:1;" x1="323.5257" x2="323.5257" y1="374.5443" y2="407.8032"/><polygon fill="#333333" points="319.5257,397.8032,323.5257,407.8032,327.5257,397.8032,323.5257,401.8032" style="stroke:#333333;stroke-width:1;stroke-linejoin:miter;stroke-miterlimit:10;"/><line style="stroke:#333333;stroke-width:1;" x1="323.5257" x2="323.5257" y1="548.1797" y2="568.1797"/><polygon fill="#333333" points="319.5257,558.1797,323.5257,568.1797,327.5257,558.1797,323.5257,562.1797" style="stroke:#333333;stroke-width:1;stroke-linejoin:miter;stroke-miterlimit:10;"/><line style="stroke:#333333;stroke-width:1;" x1="171.6477" x2="238.2882" y1="362.5443" y2="362.5443"/><polygon fill="#333333" points="228.2882,358.5443,238.2882,362.5443,228.2882,366.5443,232.2882,362.5443" style="stroke:#333333;stroke-width:1;stroke-linejoin:miter;stroke-miterlimit:10;"/><line style="stroke:#333333;stroke-width:1;" x1="328.2358" x2="328.2358" y1="298.4764" y2="335.5443"/><line style="stroke:#333333;stroke-width:1;" x1="328.2358" x2="111.0005" y1="335.5443" y2="335.5443"/><line style="stroke:#333333;stroke-width:1;" x1="111.0005" x2="111.0005" y1="335.5443" y2="350.5443"/><polygon fill="#333333" points="107.0005,340.5443,111.0005,350.5443,115.0005,340.5443,111.0005,344.5443" style="stroke:#333333;stroke-width:1;stroke-linejoin:miter;stroke-miterlimit:10;"/><line style="stroke:#333333;stroke-width:1;" x1="408.7632" x2="540.761" y1="362.5443" y2="362.5443"/><line style="stroke:#333333;stroke-width:1;" x1="540.761" x2="540.761" y1="362.5443" y2="438.9843"/><polygon fill="#333333" points="536.761,428.9843,540.761,438.9843,544.761,428.9843,540.761,432.9843" style="stroke:#333333;stroke-width:1;stroke-linejoin:miter;stroke-miterlimit:10;"/><line style="stroke:#333333;stroke-width:1;" x1="540.761" x2="540.761" y1="508.0167" y2="568.1797"/><polygon fill="#333333" points="536.761,558.1797,540.761,568.1797,544.761,558.1797,540.761,562.1797" style="stroke:#333333;stroke-width:1;stroke-linejoin:miter;stroke-miterlimit:10;"/><line style="stroke:#333333;stroke-width:1;" x1="111.0005" x2="540.761" y1="568.1797" y2="568.1797"/><line style="stroke:#333333;stroke-width:1;" x1="328.2358" x2="328.2358" y1="681.9358" y2="701.9358"/><polygon fill="#333333" points="324.2358,691.9358,328.2358,701.9358,332.2358,691.9358,328.2358,695.9358" style="stroke:#333333;stroke-width:1;stroke-linejoin:miter;stroke-miterlimit:10;"/><line style="stroke:#333333;stroke-width:1;" x1="328.2358" x2="328.2358" y1="568.1797" y2="629.2476"/><polygon fill="#333333" points="324.2358,619.2476,328.2358,629.2476,332.2358,619.2476,328.2358,623.2476" style="stroke:#333333;stroke-width:1;stroke-linejoin:miter;stroke-miterlimit:10;"/><line style="stroke:#333333;stroke-width:1;" x1="230.4212" x2="230.4212" y1="902.3802" y2="922.3802"/><polygon fill="#333333" points="226.4212,912.3802,230.4212,922.3802,234.4212,912.3802,230.4212,916.3802" style="stroke:#333333;stroke-width:1;stroke-linejoin:miter;stroke-miterlimit:10;"/><line style="stroke:#333333;stroke-width:1;" x1="268.0396" x2="230.4212" y1="827.692" y2="827.692"/><line style="stroke:#333333;stroke-width:1;" x1="230.4212" x2="230.4212" y1="827.692" y2="849.692"/><polygon fill="#333333" points="226.4212,839.692,230.4212,849.692,234.4212,839.692,230.4212,843.692" style="stroke:#333333;stroke-width:1;stroke-linejoin:miter;stroke-miterlimit:10;"/><line style="stroke:#333333;stroke-width:1;" x1="388.4319" x2="426.0503" y1="827.692" y2="827.692"/><line style="stroke:#333333;stroke-width:1;" x1="426.0503" x2="426.0503" y1="827.692" y2="849.692"/><polygon fill="#333333" points="422.0503,839.692,426.0503,849.692,430.0503,839.692,426.0503,843.692" style="stroke:#333333;stroke-width:1;stroke-linejoin:miter;stroke-miterlimit:10;"/><line style="stroke:#333333;stroke-width:1;" x1="230.4212" x2="230.4212" y1="975.0684" y2="993.0684"/><line style="stroke:#333333;stroke-width:1;" x1="230.4212" x2="316.2358" y1="993.0684" y2="993.0684"/><polygon fill="#333333" points="306.2358,989.0684,316.2358,993.0684,306.2358,997.0684,310.2358,993.0684" style="stroke:#333333;stroke-width:1;stroke-linejoin:miter;stroke-miterlimit:10;"/><line style="stroke:#333333;stroke-width:1;" x1="426.0503" x2="426.0503" y1="902.3802" y2="993.0684"/><line style="stroke:#333333;stroke-width:1;" x1="426.0503" x2="340.2358" y1="993.0684" y2="993.0684"/><polygon fill="#333333" points="350.2358,989.0684,340.2358,993.0684,350.2358,997.0684,346.2358,993.0684" style="stroke:#333333;stroke-width:1;stroke-linejoin:miter;stroke-miterlimit:10;"/><line style="stroke:#333333;stroke-width:1;" x1="328.2358" x2="328.2358" y1="754.6241" y2="815.692"/><polygon fill="#333333" points="324.2358,805.692,328.2358,815.692,332.2358,805.692,328.2358,809.692" style="stroke:#333333;stroke-width:1;stroke-linejoin:miter;stroke-miterlimit:10;"/><line style="stroke:#333333;stroke-width:1;" x1="328.2358" x2="328.2358" y1="1005.0684" y2="1037.0684"/><polygon fill="#333333" points="324.2358,1027.0684,328.2358,1037.0684,332.2358,1027.0684,328.2358,1031.0684" style="stroke:#333333;stroke-width:1;stroke-linejoin:miter;stroke-miterlimit:10;"/><line style="stroke:#333333;stroke-width:1;" x1="328.2358" x2="328.2358" y1="1073.4125" y2="1093.4125"/><polygon fill="#333333" points="324.2358,1083.4125,328.2358,1093.4125,332.2358,1083.4125,328.2358,1087.4125" style="stroke:#333333;stroke-width:1;stroke-linejoin:miter;stroke-miterlimit:10;"/></g></svg>