<svg xmlns="http://www.w3.org/2000/svg" xmlns:xlink="http://www.w3.org/1999/xlink" contentStyleType="text/css" data-diagram-type="CLASS" height="638px" preserveAspectRatio="none" style="width:1220px;height:638px;background:#FFFFFF;" version="1.1" viewBox="0 0 1220 638" width="1220px" zoomAndPan="magnify"><?plantuml $version$?><defs/><g><!--class doc--><g class="entity" data-qualified-name="doc" data-source-line="15" id="ent0001"><rect fill="#F5E0C3" height="178.5433" rx="3" ry="3" style="stroke:#B5791F;stroke-width:0.5;" width="237.2732" x="312.75" y="245.47"/><text fill="#3A2A0A" font-family="Helvetica" font-size="14" lengthAdjust="spacing" textLength="67.1437" x="397.8147" y="265.4359">document</text><line style="stroke:#B5791F;stroke-width:0.5;" x1="313.75" x2="549.0232" y1="274.5379" y2="274.5379"/><g data-visibility-modifier="PUBLIC_FIELD"><ellipse cx="323.75" cy="289.5719" fill="none" rx="3" ry="3" style="stroke:#038048;stroke-width:1;"/></g><text fill="#3A2A0A" font-family="Helvetica" font-size="14" lengthAdjust="spacing" textLength="211.2732" x="332.75" y="293.5039">document/uri  &#171;unique identity&#187;</text><line style="stroke:#B5791F;stroke-width:1;" x1="313.75" x2="549.0232" y1="301.6058" y2="301.6058"/><text fill="#3A2A0A" font-family="Helvetica" font-size="14" lengthAdjust="spacing" textLength="97.7616" x="318.75" y="320.5718">document/text</text><text fill="#3A2A0A" font-family="Helvetica" font-size="14" lengthAdjust="spacing" textLength="191.7993" x="318.75" y="339.6397">document/language  &#171;index&#187;</text><text fill="#3A2A0A" font-family="Helvetica" font-size="14" lengthAdjust="spacing" textLength="178.2893" x="318.75" y="358.7076">document/version  &#171;index&#187;</text><text fill="#3A2A0A" font-family="Helvetica" font-size="14" lengthAdjust="spacing" textLength="102.5496" x="318.75" y="377.7755">document/dirty</text><text fill="#3A2A0A" font-family="Helvetica" font-size="14" lengthAdjust="spacing" textLength="180.1933" x="318.75" y="396.8434">document/opened  &#171;index&#187;</text><text fill="#3A2A0A" font-family="Helvetica" font-size="14" lengthAdjust="spacing" textLength="158.5214" x="318.75" y="415.9114">document/project  &#171;ref&#187;</text></g><!--class diag--><g class="entity" data-qualified-name="diag" data-source-line="26" id="ent0002"><rect fill="#F5E0C3" height="159.4754" rx="3" ry="3" style="stroke:#B5791F;stroke-width:0.5;" width="252.7711" x="7" y="7"/><text fill="#3A2A0A" font-family="Helvetica" font-size="14" lengthAdjust="spacing" textLength="67.8997" x="99.4357" y="26.9659">diagnostic</text><line style="stroke:#B5791F;stroke-width:0.5;" x1="8" x2="258.7711" y1="36.0679" y2="36.0679"/><text fill="#3A2A0A" font-family="Helvetica" font-size="14" lengthAdjust="spacing" textLength="223.8451" x="13" y="55.0339">diagnostic/document  &#171;ref, index&#187;</text><line style="stroke:#B5791F;stroke-width:1;" x1="8" x2="258.7711" y1="63.1358" y2="63.1358"/><text fill="#3A2A0A" font-family="Helvetica" font-size="14" lengthAdjust="spacing" textLength="131.8655" x="13" y="82.1018">diagnostic/message</text><text fill="#3A2A0A" font-family="Helvetica" font-size="14" lengthAdjust="spacing" textLength="124.3055" x="13" y="101.1697">diagnostic/severity</text><text fill="#3A2A0A" font-family="Helvetica" font-size="14" lengthAdjust="spacing" textLength="208.2912" x="13" y="120.2376">diagnostic/start-line / start-char</text><text fill="#3A2A0A" font-family="Helvetica" font-size="14" lengthAdjust="spacing" textLength="197.7072" x="13" y="139.3055">diagnostic/end-line / end-char</text><text fill="#3A2A0A" font-family="Helvetica" font-size="14" lengthAdjust="spacing" textLength="240.7711" x="13" y="158.3734">diagnostic/version  &#171;index, optional&#187;</text></g><!--class sym--><g class="entity" data-qualified-name="sym" data-source-line="36" id="ent0003"><rect fill="#F5E0C3" height="159.4754" rx="3" ry="3" style="stroke:#B5791F;stroke-width:0.5;" width="273.085" x="294.84" y="7"/><text fill="#3A2A0A" font-family="Helvetica" font-size="14" lengthAdjust="spacing" textLength="47.6278" x="407.5686" y="26.9659">symbol</text><line style="stroke:#B5791F;stroke-width:0.5;" x1="295.84" x2="566.925" y1="36.0679" y2="36.0679"/><text fill="#3A2A0A" font-family="Helvetica" font-size="14" lengthAdjust="spacing" textLength="203.5732" x="300.84" y="55.0339">symbol/document  &#171;ref, index&#187;</text><text fill="#3A2A0A" font-family="Helvetica" font-size="14" lengthAdjust="spacing" textLength="167.1314" x="300.84" y="74.1018">symbol/parent  &#171;ref, self&#187;</text><line style="stroke:#B5791F;stroke-width:1;" x1="295.84" x2="566.925" y1="82.2038" y2="82.2038"/><text fill="#3A2A0A" font-family="Helvetica" font-size="14" lengthAdjust="spacing" textLength="90.3277" x="300.84" y="101.1697">symbol/name</text><text fill="#3A2A0A" font-family="Helvetica" font-size="14" lengthAdjust="spacing" textLength="81.1857" x="300.84" y="120.2376">symbol/kind</text><text fill="#3A2A0A" font-family="Helvetica" font-size="14" lengthAdjust="spacing" textLength="197.9592" x="300.84" y="139.3055">symbol/(start|end)-(line|char)</text><text fill="#3A2A0A" font-family="Helvetica" font-size="14" lengthAdjust="spacing" textLength="261.085" x="300.84" y="158.3734">symbol/selection-(start|end)-(line|char)</text></g><!--class proj--><g class="entity" data-qualified-name="proj" data-source-line="46" id="ent0004"><rect fill="#F5E0C3" height="102.2717" rx="3" ry="3" style="stroke:#B5791F;stroke-width:0.5;" width="226.0032" x="318.38" y="521.02"/><text fill="#3A2A0A" font-family="Helvetica" font-size="14" lengthAdjust="spacing" textLength="46.1438" x="408.3097" y="540.9859">project</text><line style="stroke:#B5791F;stroke-width:0.5;" x1="319.38" x2="543.3832" y1="550.0879" y2="550.0879"/><g data-visibility-modifier="PUBLIC_FIELD"><ellipse cx="329.38" cy="565.1219" fill="none" rx="3" ry="3" style="stroke:#038048;stroke-width:1;"/></g><text fill="#3A2A0A" font-family="Helvetica" font-size="14" lengthAdjust="spacing" textLength="184.4493" x="338.38" y="569.0539">project/id  &#171;unique identity&#187;</text><g data-visibility-modifier="PUBLIC_FIELD"><ellipse cx="329.38" cy="584.1898" fill="none" rx="3" ry="3" style="stroke:#038048;stroke-width:1;"/></g><text fill="#3A2A0A" font-family="Helvetica" font-size="14" lengthAdjust="spacing" textLength="200.0032" x="338.38" y="588.1218">project/root  &#171;unique identity&#187;</text><line style="stroke:#B5791F;stroke-width:1;" x1="319.38" x2="543.3832" y1="596.2238" y2="596.2238"/><text fill="#3A2A0A" font-family="Helvetica" font-size="14" lengthAdjust="spacing" textLength="164.7094" x="324.38" y="615.1897">project/name  &#171;optional&#187;</text></g><!--class log--><g class="entity" data-qualified-name="log" data-source-line="53" id="ent0005"><rect fill="#F5E0C3" height="75.2038" rx="3" ry="3" style="stroke:#B5791F;stroke-width:0.5;" width="96.6577" x="1109.06" y="49.14"/><text fill="#3A2A0A" font-family="Helvetica" font-size="14" lengthAdjust="spacing" textLength="20.6919" x="1147.0429" y="69.1059">log</text><line style="stroke:#B5791F;stroke-width:0.5;" x1="1110.06" x2="1204.7177" y1="78.2079" y2="78.2079"/><text fill="#3A2A0A" font-family="Helvetica" font-size="14" lengthAdjust="spacing" textLength="84.6577" x="1115.06" y="97.1739">log/message</text><text fill="#3A2A0A" font-family="Helvetica" font-size="14" lengthAdjust="spacing" textLength="54.6278" x="1115.06" y="116.2418">log/lang</text></g><!--class au--><g class="entity" data-qualified-name="au" data-source-line="58" id="ent0006"><rect fill="#F5E0C3" height="56.1358" rx="3" ry="3" style="stroke:#B5791F;stroke-width:0.5;" width="283.403" x="790.68" y="58.67"/><text fill="#3A2A0A" font-family="Helvetica" font-size="14" lengthAdjust="spacing" textLength="143.5974" x="860.5828" y="78.6359">active-uri  &#171;singleton&#187;</text><line style="stroke:#B5791F;stroke-width:0.5;" x1="791.68" x2="1073.083" y1="87.7379" y2="87.7379"/><g data-visibility-modifier="PUBLIC_FIELD"><ellipse cx="801.68" cy="102.7719" fill="none" rx="3" ry="3" style="stroke:#038048;stroke-width:1;"/></g><text fill="#3A2A0A" font-family="Helvetica" font-size="14" lengthAdjust="spacing" textLength="257.403" x="810.68" y="106.7039">workspace/active-uri  &#171;unique identity&#187;</text></g><g class="entity" data-qualified-name="GMN12" data-source-line="69" id="ent0013"><path d="M793.47,288.48 L793.47,381.0101 A3,3 0 0 0 796.47,384.0101 L1068.2982,384.0101 A3,3 0 0 0 1071.2982,381.0101 L1071.2982,295.48 L1061.2982,285.48 L936.39,285.48 L932.39,115 L928.39,285.48 L796.47,285.48 A3,3 0 0 0 793.47,288.48" fill="#FEFFDD" style="stroke:#181818;stroke-width:0.5;"/><path d="M1061.2982,285.48 L1061.2982,293.98 A1.5,1.5 0 0 0 1062.7982,295.48 L1071.2982,295.48 L1061.2982,285.48" fill="#FEFFDD" style="stroke:#181818;stroke-width:0.5;"/><text fill="#000000" font-family="Helvetica" font-size="13" lengthAdjust="spacing" textLength="256.8282" x="799.47" y="304.377">A single entity holds the Workspace focus.</text><text fill="#000000" font-family="Helvetica" font-size="13" lengthAdjust="spacing" textLength="233.0512" x="799.47" y="322.083">update-active-uri! retracts only OTHER</text><text fill="#000000" font-family="Helvetica" font-size="13" lengthAdjust="spacing" textLength="220.9352" x="799.47" y="339.789">active-uri entities (the attr is unique-</text><text fill="#000000" font-family="Helvetica" font-size="13" lengthAdjust="spacing" textLength="248.9502" x="799.47" y="357.4951">identity, so a blanket retract would blank</text><text fill="#000000" font-family="Helvetica" font-size="13" lengthAdjust="spacing" textLength="111.7871" x="799.47" y="375.2011">the just-set focus).</text></g><!--link diag to doc--><g class="link" data-entity-1="ent0002" data-entity-2="ent0001" data-link-type="crowfoot" data-source-line="62" id="lnk7"><path codeLine="62" d="M243.1932,178.3867 C273.4032,203.3167 286.8896,214.4682 317.8396,240.0082" fill="none" id="diag-doc" style="stroke:#555555;stroke-width:1;"/><line style="stroke:#555555;stroke-width:1;" x1="235.4803" x2="225.4911" y1="172.0219" y2="171.5577"/><line style="stroke:#555555;stroke-width:1;" x1="235.4803" x2="233.1289" y1="172.0219" y2="162.3023"/><line style="stroke:#555555;stroke-width:1;" x1="235.4803" x2="229.31" y1="172.0219" y2="166.93"/><ellipse cx="240.108" cy="175.8408" fill="none" rx="4" ry="4" style="stroke:#555555;stroke-width:1;"/><line style="stroke:#555555;stroke-width:1;" x1="323.4707" x2="318.3789" y1="239.4689" y2="245.6393"/><line style="stroke:#555555;stroke-width:1;" x1="321.1568" x2="316.065" y1="237.5595" y2="243.7299"/><line style="stroke:#555555;stroke-width:1;" x1="317.8396" x2="324.01" y1="240.0082" y2="245.1"/><text fill="#000000" font-family="Helvetica" font-size="13" lengthAdjust="spacing" textLength="130.2341" x="283.39" y="211.367">diagnostic/document</text></g><!--link sym to doc--><g class="link" data-entity-1="ent0003" data-entity-2="ent0001" data-link-type="crowfoot" data-source-line="63" id="lnk8"><path codeLine="63" d="M431.39,184.93 C431.39,209.93 431.39,211.71 431.39,237.32" fill="none" id="sym-doc" style="stroke:#555555;stroke-width:1;"/><line style="stroke:#555555;stroke-width:1;" x1="431.39" x2="425.39" y1="174.93" y2="166.93"/><line style="stroke:#555555;stroke-width:1;" x1="431.39" x2="437.39" y1="174.93" y2="166.93"/><line style="stroke:#555555;stroke-width:1;" x1="431.39" x2="431.39" y1="174.93" y2="166.93"/><ellipse cx="431.39" cy="180.93" fill="none" rx="4" ry="4" style="stroke:#555555;stroke-width:1;"/><line style="stroke:#555555;stroke-width:1;" x1="435.39" x2="427.39" y1="241.32" y2="241.32"/><line style="stroke:#555555;stroke-width:1;" x1="435.39" x2="427.39" y1="238.32" y2="238.32"/><line style="stroke:#555555;stroke-width:1;" x1="431.39" x2="431.39" y1="237.32" y2="245.32"/><text fill="#000000" font-family="Helvetica" font-size="13" lengthAdjust="spacing" textLength="111.4101" x="432.39" y="211.367">symbol/document</text></g><!--link sym to sym--><g class="link" data-entity-1="ent0003" data-entity-2="ent0003" data-link-type="crowfoot" data-source-line="64" id="lnk9"><path codeLine="64" d="M586.1151,69.1085 C606.7451,72.2485 602.93,76.32 602.93,86.74 C602.93,97.16 603.7803,101.6899 583.1503,104.8199" fill="none" id="sym-sym" style="stroke:#555555;stroke-width:1;"/><line style="stroke:#555555;stroke-width:1;" x1="576.2289" x2="567.4172" y1="67.6038" y2="72.3317"/><line style="stroke:#555555;stroke-width:1;" x1="576.2289" x2="569.2228" y1="67.6038" y2="60.4683"/><line style="stroke:#555555;stroke-width:1;" x1="576.2289" x2="568.32" y1="67.6038" y2="66.4"/><ellipse cx="582.1606" cy="68.5066" fill="none" rx="4" ry="4" style="stroke:#555555;stroke-width:1;"/><line style="stroke:#555555;stroke-width:1;" x1="579.1955" x2="568.32" y1="105.42" y2="107.07"/><ellipse cx="579.1955" cy="105.42" fill="none" rx="4" ry="4" style="stroke:#555555;stroke-width:1;"/><line style="stroke:#555555;stroke-width:1;" x1="572.8748" x2="571.6747" y1="110.4247" y2="102.5152"/><text fill="#000000" font-family="Helvetica" font-size="13" lengthAdjust="spacing" textLength="158.6131" x="608.93" y="92.137">symbol/parent (hierarchy)</text></g><!--link doc to proj--><g class="link" data-entity-1="ent0001" data-entity-2="ent0004" data-link-type="crowfoot" data-source-line="65" id="lnk10"><path codeLine="65" d="M431.39,442.41 C431.39,474.99 431.39,477.74 431.39,505.8" fill="none" id="doc-proj" style="stroke:#555555;stroke-width:1;"/><line style="stroke:#555555;stroke-width:1;" x1="431.39" x2="425.39" y1="432.41" y2="424.41"/><line style="stroke:#555555;stroke-width:1;" x1="431.39" x2="437.39" y1="432.41" y2="424.41"/><line style="stroke:#555555;stroke-width:1;" x1="431.39" x2="431.39" y1="432.41" y2="424.41"/><ellipse cx="431.39" cy="438.41" fill="none" rx="4" ry="4" style="stroke:#555555;stroke-width:1;"/><line style="stroke:#555555;stroke-width:1;" x1="431.39" x2="431.39" y1="509.8" y2="520.8"/><ellipse cx="431.39" cy="509.8" fill="none" rx="4" ry="4" style="stroke:#555555;stroke-width:1;"/><line style="stroke:#555555;stroke-width:1;" x1="435.39" x2="427.39" y1="516.8" y2="516.8"/><text fill="#000000" font-family="Helvetica" font-size="13" lengthAdjust="spacing" textLength="110.0321" x="438.4025" y="468.917">document/project</text><text fill="#000000" font-family="Helvetica" font-size="13" lengthAdjust="spacing" textLength="122.0571" x="432.39" y="486.623">(longest root-prefix)</text></g><!--link au to doc--><g class="link" data-entity-1="ent0006" data-entity-2="ent0001" data-link-type="dependency" data-source-line="66" id="lnk11"><path codeLine="66" d="M877.23,115.13 C846.65,130.3 807.93,149.47 773.39,166.47 C699.26,202.96 620.473,241.4961 554.653,273.6361" fill="none" id="au-to-doc" style="stroke:#555555;stroke-width:1;stroke-dasharray:7,7;"/><polygon fill="#555555" points="550.16,275.83,560.0025,275.4753,554.653,273.6361,556.4922,268.2866,550.16,275.83" style="stroke:#555555;stroke-width:1;stroke-linejoin:miter;stroke-miterlimit:10;"/><text fill="#000000" font-family="Helvetica" font-size="13" lengthAdjust="spacing" textLength="141.4011" x="708.99" y="211.367">names the focused URI</text></g></g></svg>