<svg xmlns="http://www.w3.org/2000/svg" xmlns:xlink="http://www.w3.org/1999/xlink" contentStyleType="text/css" data-diagram-type="DESCRIPTION" height="296px" preserveAspectRatio="none" style="width:1453px;height:296px;background:#FFFFFF;" version="1.1" viewBox="0 0 1453 296" width="1453px" zoomAndPan="magnify"><?plantuml $version$?><defs/><g><!--cluster Formal models (TLA+ / Rocq)--><g class="cluster" data-qualified-name="Formal models .TLA. . Rocq." data-source-line="10" id="ent0001"><path d="M257.5,6.602 L455.6752,6.602 A3.75,3.75 0 0 1 458.1752,9.102 L465.1752,31.6699 L841.5,31.6699 A2.5,2.5 0 0 1 844,34.1699 L844,97.172 A2.5,2.5 0 0 1 841.5,99.672 L257.5,99.672 A2.5,2.5 0 0 1 255,97.172 L255,9.102 A2.5,2.5 0 0 1 257.5,6.602" fill="#FBE9EB" style="stroke:#000000;stroke-width:1.5;"/><line style="stroke:#000000;stroke-width:1.5;" x1="255" x2="465.1752" y1="31.6699" y2="31.6699"/><text fill="#000000" font-family="Helvetica" font-size="14" font-weight="700" lengthAdjust="spacing" textLength="197.1752" x="259" y="23.5679">Formal models (TLA+ / Rocq)</text></g><!--cluster Source subsystem--><g class="cluster" data-qualified-name="Source subsystem" data-source-line="17" id="ent0006"><path d="M8.5,150.672 L135.6535,150.672 A3.75,3.75 0 0 1 138.1535,153.172 L145.1535,175.7399 L1059.5,175.7399 A2.5,2.5 0 0 1 1062,178.2399 L1062,279.372 A2.5,2.5 0 0 1 1059.5,281.872 L8.5,281.872 A2.5,2.5 0 0 1 6,279.372 L6,153.172 A2.5,2.5 0 0 1 8.5,150.672" fill="#F3F7FB" style="stroke:#000000;stroke-width:1.5;"/><line style="stroke:#000000;stroke-width:1.5;" x1="6" x2="145.1535" y1="175.7399" y2="175.7399"/><text fill="#000000" font-family="Helvetica" font-size="14" font-weight="700" lengthAdjust="spacing" textLength="126.1535" x="10" y="167.6379">Source subsystem</text></g><!--entity m1--><g class="entity" data-qualified-name="Formal models .TLA. . Rocq..m1" data-source-line="11" id="ent0002"><rect fill="#E6A9B0" height="39.0679" rx="2.5" ry="2.5" style="stroke:#7A1F2B;stroke-width:0.5;" width="112.9036" x="270.55" y="44.602"/><text fill="#3A0A10" font-family="Helvetica" font-size="14" lengthAdjust="spacing" textLength="92.9036" x="280.55" y="69.5679">BrowserAsync</text></g><!--entity m2--><g class="entity" data-qualified-name="Formal models .TLA. . Rocq..m2" data-source-line="12" id="ent0003"><rect fill="#E6A9B0" height="39.0679" rx="2.5" ry="2.5" style="stroke:#7A1F2B;stroke-width:0.5;" width="75.6078" x="418.2" y="44.602"/><text fill="#3A0A10" font-family="Helvetica" font-size="14" lengthAdjust="spacing" textLength="55.6078" x="428.2" y="69.5679">DocSync</text></g><!--entity m3--><g class="entity" data-qualified-name="Formal models .TLA. . Rocq..m3" data-source-line="13" id="ent0004"><rect fill="#E6A9B0" height="39.0679" rx="2.5" ry="2.5" style="stroke:#7A1F2B;stroke-width:0.5;" width="147.3155" x="528.34" y="44.602"/><text fill="#3A0A10" font-family="Helvetica" font-size="14" lengthAdjust="spacing" textLength="127.3155" x="538.34" y="69.5679">LightningBugAsync</text></g><!--entity m4--><g class="entity" data-qualified-name="Formal models .TLA. . Rocq..m4" data-source-line="14" id="ent0005"><rect fill="#E6A9B0" height="39.0679" rx="2.5" ry="2.5" style="stroke:#7A1F2B;stroke-width:0.5;" width="117.6776" x="710.16" y="44.602"/><text fill="#3A0A10" font-family="Helvetica" font-size="14" lengthAdjust="spacing" textLength="97.6776" x="720.16" y="69.5679">LspConnection</text></g><!--entity s1--><g class="entity" data-qualified-name="Source subsystem.s1" data-source-line="18" id="ent0007"><rect fill="#D6E4F0" height="77.2038" rx="2.5" ry="2.5" style="stroke:#7A1F2B;stroke-width:0.5;" width="213.5352" x="22.23" y="188.672"/><text fill="#3A0A10" font-family="Helvetica" font-size="14" lengthAdjust="spacing" textLength="193.5352" x="32.23" y="213.6379">React unmount + debounce +</text><text fill="#3A0A10" font-family="Helvetica" font-size="14" lengthAdjust="spacing" textLength="128.6735" x="32.23" y="232.7058">idle DataScript sync</text><text fill="#3A0A10" font-family="Helvetica" font-size="14" lengthAdjust="spacing" textLength="179.7453" x="32.23" y="251.7738">(lib.core, lib.editor.runtime)</text></g><!--entity s2--><g class="entity" data-qualified-name="Source subsystem.s2" data-source-line="19" id="ent0008"><rect fill="#8794A6" height="58.1358" rx="2.5" ry="2.5" style="stroke:#7A1F2B;stroke-width:0.5;" width="179.7814" x="271.11" y="198.202"/><text fill="#3A0A10" font-family="Helvetica" font-size="14" lengthAdjust="spacing" textLength="149.3934" x="281.11" y="223.1679">Same-file reactive sync</text><text fill="#3A0A10" font-family="Helvetica" font-size="14" lengthAdjust="spacing" textLength="159.7814" x="281.11" y="242.2358">(lib.workspace.doc-sync)</text></g><!--entity s3--><g class="entity" data-qualified-name="Source subsystem.s3" data-source-line="20" id="ent0009"><rect fill="#6FB2B0" height="58.1358" rx="2.5" ry="2.5" style="stroke:#7A1F2B;stroke-width:0.5;" width="232.3792" x="485.81" y="198.202"/><text fill="#3A0A10" font-family="Helvetica" font-size="14" lengthAdjust="spacing" textLength="192.7932" x="495.81" y="223.1679">Public-API document lifecycle</text><text fill="#3A0A10" font-family="Helvetica" font-size="14" lengthAdjust="spacing" textLength="212.3792" x="495.81" y="242.2358">(lib.editor.commands + runtime)</text></g><!--entity s4--><g class="entity" data-qualified-name="Source subsystem.s4" data-source-line="21" id="ent0010"><rect fill="#5FA55A" height="58.1358" rx="2.5" ry="2.5" style="stroke:#7A1F2B;stroke-width:0.5;" width="292.9429" x="753.53" y="198.202"/><text fill="#3A0A10" font-family="Helvetica" font-size="14" lengthAdjust="spacing" textLength="219.4351" x="763.53" y="223.1679">LSP connection FSM + WebSocket</text><text fill="#3A0A10" font-family="Helvetica" font-size="14" lengthAdjust="spacing" textLength="272.9429" x="763.53" y="242.2358">(lib.lsp.fsm / client / connection-manager)</text></g><g class="entity" data-qualified-name="GMN15" data-source-line="30" id="ent0016"><path d="M1081.11,186.862 L1081.11,267.686 L1438.8883,267.686 L1438.8883,196.862 L1428.8883,186.862 L1081.11,186.862" fill="#FEFFDD" style="stroke:#181818;stroke-width:0.5;"/><path d="M1428.8883,186.862 L1428.8883,196.862 L1438.8883,196.862 L1428.8883,186.862" fill="#FEFFDD" style="stroke:#181818;stroke-width:1;"/><text fill="#000000" font-family="Helvetica" font-size="13" lengthAdjust="spacing" textLength="285.2853" x="1087.11" y="205.759">Only LspConnection's state/transition SHAPE is</text><text fill="#000000" font-family="Helvetica" font-size="13" lengthAdjust="spacing" textLength="297.4923" x="1087.11" y="223.465">mechanically tied to source (the alignment gate).</text><text fill="#000000" font-family="Helvetica" font-size="13" lengthAdjust="spacing" textLength="279.7212" x="1087.11" y="241.171">The other ties are hand-written abstractions +</text><text fill="#000000" font-family="Helvetica" font-size="13" lengthAdjust="spacing" textLength="336.7783" x="1087.11" y="258.877">regex behaviour assertions &#8212; see verification-gate.md.</text></g><!--link m1 to s1--><g class="link" data-entity-1="ent0002" data-entity-2="ent0007" data-link-type="dependency" data-source-line="24" id="lnk11"><path d="M303.9,83.932 C272.58,109.422 219.8185,152.3665 179.4785,185.1865" fill="none" id="m1-to-s1" style="stroke:#555555;stroke-width:1;"/><polygon fill="#555555" points="175.6,188.342,185.1057,185.7649,179.4785,185.1865,180.0569,179.5593,175.6,188.342" style="stroke:#555555;stroke-width:1;stroke-linejoin:miter;stroke-miterlimit:10;"/><text fill="#000000" font-family="Helvetica" font-size="13" lengthAdjust="spacing" textLength="56.03" x="263.96" y="130.569">abstracts</text></g><!--link m2 to s2--><g class="link" data-entity-1="ent0003" data-entity-2="ent0008" data-link-type="dependency" data-source-line="25" id="lnk12"><path d="M444.92,83.932 C428.37,111.992 399.639,160.7346 380.299,193.5446" fill="none" id="m2-to-s2" style="stroke:#555555;stroke-width:1;"/><polygon fill="#555555" points="377.76,197.852,385.7761,192.1299,380.299,193.5446,378.8843,188.0675,377.76,197.852" style="stroke:#555555;stroke-width:1;stroke-linejoin:miter;stroke-miterlimit:10;"/><text fill="#000000" font-family="Helvetica" font-size="13" lengthAdjust="spacing" textLength="56.03" x="426.27" y="130.569">abstracts</text></g><!--link m3 to s3--><g class="link" data-entity-1="ent0004" data-entity-2="ent0009" data-link-type="dependency" data-source-line="26" id="lnk13"><path d="M602,83.932 C602,111.992 602,160.042 602,192.852" fill="none" id="m3-to-s3" style="stroke:#555555;stroke-width:1;"/><polygon fill="#555555" points="602,197.852,606,188.852,602,192.852,598,188.852,602,197.852" style="stroke:#555555;stroke-width:1;stroke-linejoin:miter;stroke-miterlimit:10;"/><text fill="#000000" font-family="Helvetica" font-size="13" lengthAdjust="spacing" textLength="56.03" x="603" y="130.569">abstracts</text></g><!--link m4 to s4--><g class="link" data-entity-1="ent0005" data-entity-2="ent0010" data-link-type="dependency" data-source-line="27" id="lnk14"><path d="M784.28,83.932 C807.1,111.992 847.0662,161.1621 873.7362,193.9721" fill="none" id="m4-to-s4" style="stroke:#555555;stroke-width:1;"/><polygon fill="#555555" points="876.89,197.852,874.3171,188.3451,873.7362,193.9721,868.1092,193.3912,876.89,197.852" style="stroke:#555555;stroke-width:1;stroke-linejoin:miter;stroke-miterlimit:10;"/><text fill="#000000" font-family="Helvetica" font-size="13" lengthAdjust="spacing" textLength="56.03" x="823.77" y="130.569">abstracts</text></g><!--link m4 to GMN15--><g class="link" data-entity-1="ent0005" data-entity-2="ent0016" data-link-type="association" data-source-line="30" id="lnk17"><path d="M828.1,78.192 C887.79,91.972 982.33,115.462 1062,142.672 C1099.08,155.332 1139.05,171.672 1173.3,186.542" fill="none" id="m4-GMN15" style="stroke:#555555;stroke-width:1;stroke-dasharray:7,7;"/></g></g></svg>